<?xml version="1.0" encoding="iso-8859-1"?>
<!-- Generator: Adobe Illustrator 19.0.0, SVG Export Plug-In . SVG Version: 6.00 Build 0)  -->
<svg version="1.1" id="Capa_1" xmlns="http://www.w3.org/2000/svg" xmlns:xlink="http://www.w3.org/1999/xlink" x="0px" y="0px"
	 viewBox="0 0 512 512" style="enable-background:new 0 0 512 512;" xml:space="preserve">
<circle style="fill:#008CC3;" cx="256" cy="256" r="256"/>
<path style="fill:#0074A3;" d="M512,256c0-8.046-0.39-16.001-1.116-23.857L381.921,103.179l-255.889,55.353l118.356,118.355
	L101.5,384.296l126.131,126.131C236.948,511.455,246.41,512,256,512C397.385,512,512,397.385,512,256z"/>
<path style="fill:#E0E0E0;" d="M164.595,87.552c-25.385,0-45.964,20.579-45.964,45.964s20.579,45.964,45.964,45.964
	s45.964-20.579,45.964-45.964L164.595,87.552z"/>
<path style="fill:#C0C0C0;" d="M347.405,87.552c25.385,0,45.964,20.579,45.964,45.964s-20.579,45.964-45.964,45.964
	s-45.964-20.579-45.964-45.964L347.405,87.552z"/>
<path style="fill:#8CC63F;" d="M193.391,227.414c0,0-91.891,46.506-91.891,156.882c0,0,44.143,44.152,154.5,44.152
	s154.5-44.152,154.5-44.152c0-110.376-91.891-156.882-91.891-156.882L193.391,227.414L193.391,227.414z"/>
<path style="fill:#39B54A;" d="M318.609,227.414H256v201.034c110.357,0,154.5-44.152,154.5-44.152
	C410.5,273.92,318.609,227.414,318.609,227.414z"/>
<path style="fill:#FFFFFF;" d="M201.735,227.414c0,0-34.258,43.747-34.258,108.79c0,0,25.295,26.019,88.523,26.019
	c63.23,0,88.523-26.019,88.523-26.019c0-65.043-34.258-108.79-34.258-108.79H201.735z"/>
<path style="fill:#E0E0E0;" d="M310.265,227.414H256v134.809c63.23,0,88.523-26.019,88.523-26.019
	C344.523,271.161,310.265,227.414,310.265,227.414z"/>
<path style="fill:#4D4D4D;" d="M318.609,152.049c0,0-17.887,21.687,0,75.365c0,0-8.943,35.786-62.609,35.786
	s-62.609-35.786-62.609-35.786c17.887-53.678,0-75.365,0-75.365L256,130.019L318.609,152.049z"/>
<path style="fill:#333333;" d="M318.609,152.049l-62.336-21.933L256,263.2c53.666,0,62.609-35.786,62.609-35.786
	C300.722,173.736,318.609,152.049,318.609,152.049z"/>
<path style="fill:#FFFFFF;" d="M347.938,87.552l-91.664,39.558L164.61,87.552c-11.12,25.775,0.757,55.687,26.528,66.811
	c24.588,10.61,52.928,0.272,65.136-23.087c12.207,23.359,40.548,33.697,65.136,23.087
	C347.181,143.239,359.057,113.327,347.938,87.552z"/>
<path style="fill:#E0E0E0;" d="M256.274,131.276c12.207,23.359,40.548,33.698,65.136,23.087
	c25.771-11.124,37.647-41.035,26.528-66.811l-91.664,39.558V131.276z"/>
<g>
</g>
<g>
</g>
<g>
</g>
<g>
</g>
<g>
</g>
<g>
</g>
<g>
</g>
<g>
</g>
<g>
</g>
<g>
</g>
<g>
</g>
<g>
</g>
<g>
</g>
<g>
</g>
<g>
</g>
</svg>
